<?xml version="1.0" standalone="no"?>
<!DOCTYPE svg PUBLIC "-//W3C//DTD SVG 20010904//EN"
 "http://www.w3.org/TR/2001/REC-SVG-20010904/DTD/svg10.dtd">
<svg version="1.0" xmlns="http://www.w3.org/2000/svg"
 width="513.000000pt" height="513.000000pt" viewBox="0 0 513.000000 513.000000"
 preserveAspectRatio="xMidYMid meet">
<metadata>
Created by potrace 1.14, written by Peter Selinger 2001-2017
</metadata>
<g transform="translate(0.000000,513.000000) scale(0.100000,-0.100000)"
fill="#000000" stroke="none">
<path d="M2267 4634 c-85 -30 -146 -99 -198 -222 -17 -42 -47 -108 -65 -147
-159 -329 -441 -573 -788 -681 l-89 -27 109 -29 c123 -31 128 -33 204 -47 30
-6 66 -13 80 -16 14 -3 45 -8 70 -11 25 -3 54 -8 65 -11 38 -9 360 -12 402 -4
37 7 42 6 45 -13 9 -49 -3 -323 -17 -376 -2 -8 -6 -37 -10 -65 -33 -263 -196
-732 -378 -1084 -26 -52 -46 -100 -43 -107 8 -20 116 -90 225 -144 55 -27 102
-50 105 -50 3 0 17 -5 33 -12 15 -6 30 -12 33 -13 3 -1 12 -4 20 -8 99 -38
321 -97 470 -123 62 -11 139 -24 180 -29 25 -3 56 -8 70 -10 24 -3 142 -15
205 -21 17 -1 50 -3 75 -4 l45 -2 -35 -8 c-94 -23 -395 -31 -614 -17 -66 4
-122 9 -125 11 -3 2 -33 7 -66 11 -74 8 -249 41 -330 62 -33 8 -67 17 -75 18
-8 2 -46 13 -85 25 -38 12 -84 26 -102 31 -17 5 -79 27 -137 49 l-106 39 -142
-45 c-161 -51 -644 -213 -818 -274 -276 -96 -353 -172 -263 -257 60 -56 248
-157 358 -193 22 -7 45 -16 50 -20 10 -8 308 -106 348 -115 12 -2 66 -15 119
-29 87 -22 305 -68 383 -80 17 -3 44 -7 60 -10 69 -11 244 -35 298 -40 235
-24 250 -25 386 -32 250 -14 853 -8 1056 10 28 3 86 7 130 11 44 3 91 7 105
10 14 2 52 6 85 10 72 8 112 13 185 25 30 5 71 12 90 14 19 2 56 9 83 15 26 6
64 14 85 17 49 8 254 60 317 82 28 9 52 17 55 17 3 1 12 4 20 8 8 3 42 15 74
27 193 69 456 233 456 284 0 92 -100 153 -540 325 -58 23 -114 46 -125 51 -11
5 -105 41 -210 80 -104 40 -201 78 -216 86 -47 24 -110 106 -160 209 -42 88
-118 272 -123 300 -1 6 -4 15 -8 20 -6 11 -68 200 -98 300 -59 196 -101 345
-115 405 -2 8 -19 83 -38 165 -29 122 -67 296 -93 420 -29 143 -89 397 -105
446 -73 227 -235 467 -419 623 -179 151 -330 209 -443 170z"/>
</g>
</svg>
