<svg id="Слой_1" data-name="Слой 1" xmlns="http://www.w3.org/2000/svg" viewBox="0 0 2267.72 2267.72"><defs><style>.cls-1{fill:#f8f7f7;}</style></defs><path class="cls-1" d="M628.59,1132.45a81.58,81.58,0,0,1,5.43-30.19,69.6,69.6,0,0,1,39.14-39.59,84.68,84.68,0,0,1,60.28,0,69.43,69.43,0,0,1,39.27,39.57,86.49,86.49,0,0,1,0,60.38,70.17,70.17,0,0,1-15.46,23.9,68.41,68.41,0,0,1-23.78,15.59,86.21,86.21,0,0,1-60.28,0,68.59,68.59,0,0,1-23.69-15.57A70.17,70.17,0,0,1,634,1162.64,81.51,81.51,0,0,1,628.59,1132.45Zm31.79,0q0,13.44,5.56,23.47a39.68,39.68,0,0,0,15.26,15.57,44.13,44.13,0,0,0,22.3,5.54,43.58,43.58,0,0,0,22.08-5.56,39.68,39.68,0,0,0,15.25-15.58q5.55-10,5.54-23.68,0-13.46-5.56-23.47a38.9,38.9,0,0,0-15.26-15.47,47.55,47.55,0,0,0-44.38.13,39.92,39.92,0,0,0-15.25,15.47Q660.37,1118.79,660.38,1132.44Z"/><path class="cls-1" d="M848.6,1204.92l-.06-145.3,50.79,0q22.6,0,38.94,8.62a60,60,0,0,1,25.18,25q8.87,16.32,8.87,39.15,0,23-8.84,39.26a59.36,59.36,0,0,1-25.27,24.76q-16.44,8.55-39.05,8.55Zm31.14-18.36-12.38-11.73H897q13,0,22.72-4.39a32.63,32.63,0,0,0,15.15-13.76q5.43-9.39,5.43-24.33,0-14.73-5.34-24.11a33.36,33.36,0,0,0-15.05-14q-9.72-4.58-22.73-4.58H865.84l13.86-9.18Z"/><path class="cls-1" d="M1063.2,1089.2l10.88-12.6,0,111.17-12-12.59,73.19,0v29.65l-92.39,0,0-145.3,92.39,0v29.66Zm.66,57.6v-29.65l59.74,0v29.65Z"/><path class="cls-1" d="M1239.91,1204.78l-40-145.29h31.36l33.33,127.15-15.15.86,38.58-128H1318l-5.76,19.84-37.93,125.47Zm92.17,0-38-125.44-6-19.84H1318l38.88,128-15.15-.85,33-127.17,31.58,0-39.85,145.32Z"/><path class="cls-1" d="M1506,1204.68h-31.15l0-145.3h31.15Z"/><path class="cls-1" d="M1643.38,1207.19q-19.2,0-32.33-7a46,46,0,0,1-20-21q-6.84-14-6.84-34.88l0-84.92h31.15l0,85.56q0,15.15,7.15,23.57t20.81,8.42q13.65,0,20.69-8.43t7-23.58l0-85.56h31.36l0,84.92q0,20.91-6.81,34.89a46.12,46.12,0,0,1-20,21Q1662.59,1207.19,1643.38,1207.19Z"/><path class="cls-1" d="M1830.08,1208.19a73,73,0,0,1-23.58-3.72,57.55,57.55,0,0,1-19.63-11.31,62.92,62.92,0,0,1-14.63-19.51l24.32-15.16a44.18,44.18,0,0,0,15.16,15.57,38.5,38.5,0,0,0,20,5.33q9.6,0,14.51-4.06a13.13,13.13,0,0,0,4.9-10.67,12.15,12.15,0,0,0-2.24-7.36q-2.24-3.09-8-5.87a85.9,85.9,0,0,0-16.65-5.33q-17.71-4.26-28.06-10.65t-14.62-15.25a44.82,44.82,0,0,1-4.27-19.74,41.51,41.51,0,0,1,6.28-22.73,43.3,43.3,0,0,1,18-15.68q11.73-5.77,27.95-5.78,18.35,0,31,7.25a58.77,58.77,0,0,1,20.39,19l-24.32,16.87a31.92,31.92,0,0,0-13.34-10.45,40.33,40.33,0,0,0-15.47-3.2q-9.18,0-14.19,3.53a11.41,11.41,0,0,0-5,9.92,12,12,0,0,0,5.13,9.92q5.12,3.95,20.06,7.35,17.91,4.27,28.8,10.45t15.8,15.14q4.9,9,4.91,21.55a40.91,40.91,0,0,1-6.5,22.83,45,45,0,0,1-18.45,15.9Q1846.51,1208.19,1830.08,1208.19Z"/><path class="cls-1" d="M569.37,1049.94c-8.19-1.38-30.34-2.84-40.41-3.46a13.82,13.82,0,0,1-8.77-4.39c-10.21-10-24.46-32.29-30.18-41.93-5.52-9.31-13.38-23.93-17.95-31.84A58.87,58.87,0,0,0,443,943.27c-11-4.41-22.34-4.73-23.39,11.68-2.1,32.79-27.43,44.9-27.43,44.9,29.27-.17,40.62-7.51,40.62-7.51,11.76,29.33,1.93,72,1.93,72s18.2,10.36,65.7-1.33l.5-.22c-15.14,7.36-39.45,15.08-71.89,12.26,0,0-18.93,12.8-37.19,26.41-9.13,6.8-7.86,9.58-6.7,10.75,4.08,4.14,43.24,11.1,102.64-6.57,49.4-14.69,78.87-32.5,89.15-49.1C578.23,1054.43,577.79,1051.36,569.37,1049.94Z"/><path class="cls-1" d="M522.86,1093.12q9.48,5.66,16.54,17.81L567.77,1100a73.52,73.52,0,0,0-17.2-25.19L502,1087.52A42.26,42.26,0,0,1,522.86,1093.12Z"/><path class="cls-1" d="M539.41,1154q-7,12.17-16.53,17.72t-22.29,5.56a42.21,42.21,0,0,1-21.66-5.54A39.28,39.28,0,0,1,464,1156.09q-5.44-10.12-5.45-23.58,0-13.65,5.43-23.68a40.13,40.13,0,0,1,13.89-15l-47,12.26a83.12,83.12,0,0,0-4.07,26.45q0,22,9.08,38.94A66.27,66.27,0,0,0,461.44,1198q16.55,9.59,39.16,9.58,25.6,0,42-11.11t25.17-31.58Z"/></svg>