<svg width="624" height="198" viewBox="0 0 624 198" fill="none" xmlns="http://www.w3.org/2000/svg">
<path fill-rule="evenodd" clip-rule="evenodd" d="M593.889 4V115.36H623.649V159.44H593.889V194H539.009V159.44H423.809V120.351L529.313 4H593.889ZM544.009 154.44V189H588.889V154.44H618.649V120.36H588.889V9H531.529L428.809 122.28V154.44H544.009ZM544.009 44.8572L475.68 120.36H544.009V44.8572ZM539.009 115.36V57.8337L486.949 115.36H539.009Z" fill="#31B284"/>
<path fill-rule="evenodd" clip-rule="evenodd" d="M221.448 150.958L221.441 150.947C212.773 135.991 208.527 118.618 208.527 99.0002C208.527 79.5339 212.777 62.2431 221.441 47.293C230.089 32.371 242.314 20.7596 257.997 12.4966C273.73 4.20691 292.163 0.160156 313.127 0.160156C333.939 0.160156 352.29 4.20972 368.018 12.4966C383.697 20.7574 395.919 32.365 404.567 47.2813C413.244 62.0879 417.487 79.3883 417.487 99.0002C417.487 118.466 413.238 135.757 404.573 150.707C395.925 165.629 383.701 177.241 368.018 185.504C352.29 193.791 333.939 197.84 313.127 197.84C292.163 197.84 273.73 193.793 257.997 185.504C242.329 177.249 230.106 165.728 221.454 150.969L221.448 150.958ZM349.36 137.538L349.374 137.523C357.819 128.797 362.367 116.198 362.367 99.0002C362.367 81.8021 357.819 69.2035 349.374 60.4773L349.36 60.4622L349.345 60.447C341.074 51.7551 329.243 47.1202 313.127 47.1202C297.016 47.1202 285.082 51.7542 276.64 60.4773C268.196 69.2035 263.647 81.8021 263.647 99.0002C263.647 116.198 268.196 128.797 276.64 137.523C285.082 146.246 297.016 150.88 313.127 150.88C329.243 150.88 341.074 146.245 349.345 137.553L349.36 137.538ZM260.327 181.08C275.207 188.92 292.807 192.84 313.127 192.84C333.287 192.84 350.807 188.92 365.687 181.08C380.567 173.24 392.087 162.28 400.247 148.2C408.407 134.12 412.487 117.72 412.487 99.0002C412.487 80.1202 408.407 63.7202 400.247 49.8002C392.087 35.7202 380.567 24.7602 365.687 16.9202C350.807 9.08016 333.287 5.16016 313.127 5.16016C292.807 5.16016 275.207 9.08016 260.327 16.9202C245.447 24.7602 233.927 35.7202 225.767 49.8002C217.607 63.8802 213.527 80.2802 213.527 99.0002C213.527 117.88 217.607 134.36 225.767 148.44C233.927 162.36 245.447 173.24 260.327 181.08ZM352.967 141C343.527 150.92 330.247 155.88 313.127 155.88C296.007 155.88 282.647 150.92 273.047 141C263.447 131.08 258.647 117.08 258.647 99.0002C258.647 80.9202 263.447 66.9202 273.047 57.0002C282.647 47.0802 296.007 42.1202 313.127 42.1202C330.247 42.1202 343.527 47.0802 352.967 57.0002C362.567 66.9202 367.367 80.9202 367.367 99.0002C367.367 117.08 362.567 131.08 352.967 141Z" fill="#31B284"/>
<path fill-rule="evenodd" clip-rule="evenodd" d="M170.842 4V115.36H200.602V159.44H170.842V194H115.962V159.44H0.761719V120.351L106.266 4H170.842ZM120.962 154.44V189H165.842V154.44H195.602V120.36H165.842V9H108.482L5.76172 122.28V154.44H120.962ZM120.962 44.8572L52.6334 120.36H120.962V44.8572ZM115.962 115.36V57.8338L63.9018 115.36H115.962Z" fill="#31B284"/>
</svg>
