<svg width="879" height="277" viewBox="0 0 879 277" fill="none" xmlns="http://www.w3.org/2000/svg">
<path fill-rule="evenodd" clip-rule="evenodd" d="M831.257 11H749.997L604.477 171.48V217.04H767.677V266H831.257V217.04H873.417V168.76H831.257V11ZM767.677 168.76V61.7977L670.878 168.76H767.677ZM682.147 163.76L762.677 74.7743V163.76H682.147ZM836.257 163.76V6H747.781L599.477 169.551V222.04H762.677V271H836.257V222.04H878.417V163.76H836.257Z" fill="#31B284"/>
<path fill-rule="evenodd" clip-rule="evenodd" d="M312.52 211.058L312.514 211.048C300.446 190.225 294.5 165.985 294.5 138.501C294.5 111.234 300.45 87.1102 312.514 66.2934C324.562 45.5047 341.587 29.3266 363.469 17.797C385.403 6.24063 411.169 0.560547 440.6 0.560547C469.812 0.560547 495.463 6.24345 517.391 17.797C539.269 29.3243 556.291 45.4983 568.339 66.2811C580.416 86.8877 586.36 111.022 586.36 138.501C586.36 165.767 580.41 189.891 568.346 210.708C556.298 231.496 539.273 247.674 517.391 259.204C495.463 270.758 469.812 276.441 440.6 276.441C411.169 276.441 385.403 270.76 363.469 259.204C341.601 247.682 324.578 231.628 312.527 211.069L312.52 211.058ZM564.02 68.8005C552.46 48.8539 536.14 33.3272 515.06 22.2206C493.98 11.1139 469.16 5.56055 440.6 5.56055C411.813 5.56055 386.88 11.1139 365.8 22.2206C344.72 33.3272 328.4 48.8539 316.84 68.8005C305.28 88.7472 299.5 111.981 299.5 138.501C299.5 165.247 305.28 188.594 316.84 208.541C328.4 228.261 344.72 243.674 365.8 254.781C386.88 265.887 411.813 271.441 440.6 271.441C469.16 271.441 493.98 265.887 515.06 254.781C536.14 243.674 552.46 228.147 564.02 208.201C575.58 188.254 581.36 165.021 581.36 138.501C581.36 111.754 575.58 88.5205 564.02 68.8005ZM493.432 194.539L493.447 194.523C505.892 181.664 512.44 163.232 512.44 138.501C512.44 113.769 505.892 95.3372 493.447 82.4777L493.432 82.4626L493.418 82.4474C481.213 69.6222 463.849 62.9205 440.6 62.9205C417.355 62.9205 399.855 69.6212 387.413 82.4777C374.968 95.3372 368.42 113.769 368.42 138.501C368.42 163.232 374.968 181.664 387.413 194.523C399.855 207.38 417.355 214.081 440.6 214.081C463.849 214.081 481.213 207.379 493.418 194.554L493.432 194.539ZM497.04 198.001C483.667 212.054 464.853 219.081 440.6 219.081C416.347 219.081 397.42 212.054 383.82 198.001C370.22 183.947 363.42 164.114 363.42 138.501C363.42 112.887 370.22 93.0539 383.82 79.0005C397.42 64.9472 416.347 57.9205 440.6 57.9205C464.853 57.9205 483.667 64.9472 497.04 79.0005C510.64 93.0539 517.44 112.887 517.44 138.501C517.44 164.114 510.64 183.947 497.04 198.001Z" fill="#31B284"/>
<path fill-rule="evenodd" clip-rule="evenodd" d="M231.94 11H150.68L5.16016 171.48V217.04H168.36V266H231.94V217.04H274.1V168.76H231.94V11ZM168.36 168.76V61.7977L71.5617 168.76H168.36ZM82.8301 163.76L163.36 74.7743V163.76H82.8301ZM236.94 163.76V6H148.465L0.160156 169.551V222.04H163.36V271H236.94V222.04H279.1V163.76H236.94Z" fill="#31B284"/>
</svg>
