<svg width="368" height="121" viewBox="0 0 368 121" fill="none" xmlns="http://www.w3.org/2000/svg">
<path fill-rule="evenodd" clip-rule="evenodd" d="M350.517 3V67.96H367.877V97.7H350.517V118H314.337V97.7H247.137V72.1506L309.841 3H350.517ZM319.337 92.7V113H345.517V92.7H362.877V72.96H345.517V8H312.057L252.137 74.08V92.7H319.337ZM279.46 72.96H319.337V28.7853L279.46 72.96ZM314.337 41.7859L290.709 67.96H314.337V41.7859Z" fill="#31B284"/>
<path fill-rule="evenodd" clip-rule="evenodd" d="M129.379 91.8576L129.373 91.8469C124.105 82.7572 121.559 72.2509 121.559 60.4998C121.559 48.8335 124.108 38.3761 129.373 29.2926C134.621 20.2373 142.045 13.1925 151.528 8.19621C161.061 3.17319 172.161 0.759766 184.659 0.759766C197.07 0.759766 208.121 3.176 217.649 8.19621C227.128 13.1903 234.55 20.2312 239.798 29.2809C245.075 38.2874 247.619 48.7545 247.619 60.4998C247.619 72.166 245.069 82.6235 239.805 91.7069C234.557 100.762 227.132 107.807 217.649 112.803C208.121 117.824 197.07 120.24 184.659 120.24C172.161 120.24 161.061 117.826 151.528 112.803C142.06 107.815 134.637 100.828 129.385 91.8684L129.379 91.8576ZM235.479 31.7998C230.719 23.5864 223.999 17.1931 215.319 12.6198C206.639 8.04643 196.419 5.75977 184.659 5.75977C172.805 5.75977 162.539 8.04643 153.859 12.6198C145.179 17.1931 138.459 23.5864 133.699 31.7998C128.939 40.0131 126.559 49.5798 126.559 60.4998C126.559 71.5131 128.939 81.1264 133.699 89.3398C138.459 97.4598 145.179 103.806 153.859 108.38C162.539 112.953 172.805 115.24 184.659 115.24C196.419 115.24 206.639 112.953 215.319 108.38C223.999 103.806 230.719 97.4131 235.479 89.1998C240.239 80.9864 242.619 71.4198 242.619 60.4998C242.619 49.4864 240.239 39.9198 235.479 31.7998ZM204.291 81.5378L204.306 81.5227C208.75 76.9298 211.299 70.1645 211.299 60.4998C211.299 50.8351 208.75 44.0698 204.306 39.4769L204.291 39.4618L204.277 39.4466C199.939 34.8881 193.641 32.3198 184.659 32.3198C175.68 32.3198 169.313 34.8871 164.872 39.4769C160.427 44.0698 157.879 50.8351 157.879 60.4998C157.879 70.1645 160.427 76.9298 164.872 81.5227C169.313 86.1124 175.68 88.6798 184.659 88.6798C193.641 88.6798 199.939 86.1115 204.277 81.553L204.291 81.5378ZM207.899 84.9998C202.392 90.7864 194.645 93.6798 184.659 93.6798C174.672 93.6798 166.879 90.7864 161.279 84.9998C155.679 79.2131 152.879 71.0464 152.879 60.4998C152.879 49.9531 155.679 41.7864 161.279 35.9998C166.879 30.2131 174.672 27.3198 184.659 27.3198C194.645 27.3198 202.392 30.2131 207.899 35.9998C213.499 41.7864 216.299 49.9531 216.299 60.4998C216.299 71.0464 213.499 79.2131 207.899 84.9998Z" fill="#31B284"/>
<path fill-rule="evenodd" clip-rule="evenodd" d="M103.739 3V67.96H121.099V97.7H103.739V118H67.5594V97.7H0.359375V72.1506L63.0637 3H103.739ZM72.5594 92.7V113H98.7394V92.7H116.099V72.96H98.7394V8H65.2794L5.35938 74.08V92.7H72.5594ZM32.6822 72.96H72.5594V28.7853L32.6822 72.96ZM67.5594 41.7859L43.9317 67.96H67.5594V41.7859Z" fill="#31B284"/>
</svg>
